<?xml version="1.0" encoding="UTF-8" standalone="no"?>
<!-- Created with Inkscape (http://www.inkscape.org/) -->

<svg
   version="1.1"
   id="svg2"
   width="4000"
   height="2666.6667"
   viewBox="0 0 4000 2666.6667"
   sodipodi:docname="10174089_8736.eps"
   xmlns:inkscape="http://www.inkscape.org/namespaces/inkscape"
   xmlns:sodipodi="http://sodipodi.sourceforge.net/DTD/sodipodi-0.dtd"
   xmlns="http://www.w3.org/2000/svg"
   xmlns:svg="http://www.w3.org/2000/svg">
  <defs
     id="defs6" />
  <sodipodi:namedview
     id="namedview4"
     pagecolor="#ffffff"
     bordercolor="#000000"
     borderopacity="0.25"
     inkscape:showpageshadow="2"
     inkscape:pageopacity="0.0"
     inkscape:pagecheckerboard="0"
     inkscape:deskcolor="#d1d1d1" />
  <g
     id="g8"
     inkscape:groupmode="layer"
     inkscape:label="ink_ext_XXXXXX"
     transform="matrix(1.3333333,0,0,-1.3333333,0,2666.6667)">
    <g
       id="g10"
       transform="scale(0.1)">
      <path
         d="M 0,0 H 30000 V 20000 H 0 Z"
         style="fill:#ffffff;fill-opacity:1;fill-rule:nonzero;stroke:none"
         id="path12" />
      <path
         d="m 25608.9,11650.1 c -1384,476.1 -2230.7,7740 -8014.1,3809.2 -2734.7,-1858.7 -3959.4,-1240.4 -5190.3,-622.1 -1057.1,531.1 -2118.8,1062.2 -4145.61,23.9 C 5411.82,13402.6 5091.8,11733.3 5483.24,10897.2 5910.96,9983.5 4205.32,8891.2 2458.49,8141 -281.57,6964.2 1733.32,2828.5 4321.89,2808.8 6910.45,2789 25928,2848.1 25928,2848.1 c 0,0 5175.2,6911.6 -319.1,8802"
         style="fill:#ebf3fa;fill-opacity:1;fill-rule:nonzero;stroke:none"
         id="path14" />
      <path
         d="m 26218.3,3805 c 0,0 193.9,-179.8 156.1,-307.5 -37.9,-127.7 -212.9,-212.9 -236.5,-368.9 -23.7,-156.1 -118.3,-241.3 -203.4,-241.3 -85.2,0 -406,0 -406,0 0,0 -62.6,109.9 88.7,143 151.4,33.1 208.5,216.5 199,386.8 -9.5,170.3 14.2,397.3 14.2,397.3 l 321.6,75.7 66.3,-85.1"
         style="fill:#233862;fill-opacity:1;fill-rule:nonzero;stroke:none"
         id="path16" />
      <path
         d="m 22702.3,2887.6 h 1077.8 c 9.4,2 16.5,4.1 21.1,6.3 71.8,36 49.4,310.8 40.7,396 -1.7,15.8 -2.8,25 -2.8,25 0,0 -378.5,302.7 -430.5,70.9 -1.6,-7.2 -3.6,-14.3 -5.7,-21.3 -65.4,-216.8 -359.2,-315.4 -528.8,-342.9 -129.4,-21 -163.1,-96.2 -171.8,-134"
         style="fill:#233862;fill-opacity:1;fill-rule:nonzero;stroke:none"
         id="path18" />
      <path
         d="m 22919.1,9093.2 c 0,0 57.5,-717 125,-1579 91.8,-1170.8 202.2,-2609 213.2,-2881.4 18.8,-473.1 94.6,-1229.9 94.6,-1229.9 0,0 179.7,-179.8 539.2,-104 0,0 320.4,1080.3 412,2223.3 1.4,18.8 2.8,37.6 4.2,56.5 85.2,1163.6 217.6,3613.8 217.6,3613.8 l -1605.8,-99.3"
         style="fill:#f4be61;fill-opacity:1;fill-rule:nonzero;stroke:none"
         id="path20" />
      <path
         d="m 22919.1,9093.2 c 0,0 57.5,-717 125,-1579 l 1259,-1992 c 1.4,18.8 2.8,37.6 4.2,56.5 85.2,1163.6 217.6,3613.8 217.6,3613.8 l -1605.8,-99.3"
         style="fill:#f2a83d;fill-opacity:1;fill-rule:nonzero;stroke:none"
         id="path22" />
      <path
         d="m 23181.6,9008.1 c 0,0 1035.8,-2596.9 1717,-3817.2 681.1,-1220.4 893.9,-1561 893.9,-1561 0,0 390.3,156.1 425.8,262.6 0,0 -260.5,2355.9 -716.6,2930.3 -257.8,324.5 -560.6,1298.4 -574.7,1638.9 -14.2,340.6 -92.3,1014.6 -92.3,1014.6 l -1653.1,-468.2"
         style="fill:#f4be61;fill-opacity:1;fill-rule:nonzero;stroke:none"
         id="path24" />
      <path
         d="m 22134,9725 -59.2,-118.1 c 0,0 -301.1,-42 -218.3,-355.9 0,0 44.7,-129.2 127.7,-88.3 83.1,40.9 42.1,37.4 161.2,92.4 119,55 187.8,160.6 161.2,257.6 l 19.1,102.7 -191.7,109.6"
         style="fill:#ffb27d;fill-opacity:1;fill-rule:nonzero;stroke:none"
         id="path26" />
      <path
         d="m 23712.8,13016.5 c -46,271.9 -47.4,433.1 -47.4,433.1 l 525.5,423.6 c -19.5,-582.4 353.7,-862.5 353.7,-862.5 0,0 -700.4,-344.8 -1105.2,-217.1 0,0 99.7,127.4 273.4,222.9"
         style="fill:#ffb27d;fill-opacity:1;fill-rule:nonzero;stroke:none"
         id="path28" />
      <path
         d="m 23541.6,13459.2 c 0,0 668.6,-111 731.4,306.4 62.7,417.5 191.3,684.3 -233,772.8 -424.2,88.6 -531.3,-58.2 -586.1,-192.4 -54.9,-134.3 -84.7,-847.1 87.7,-886.8"
         style="fill:#ffb27d;fill-opacity:1;fill-rule:nonzero;stroke:none"
         id="path30" />
      <path
         d="m 24268.5,13736.8 c 0,0 -13.5,559.2 -622.7,648.9 -417.3,61.5 -164.6,410.2 -116.9,465.4 0,0 319,-60.8 645.5,-132.5 685.3,-150.4 166.6,-898.6 94.1,-981.8"
         style="fill:#163560;fill-opacity:1;fill-rule:nonzero;stroke:none"
         id="path32" />
      <path
         d="m 22204.1,9560.9 c -89.4,91.7 -155.7,211.1 -155.7,211.1 0,0 759.7,943.9 821.4,1041.8 61.8,97.8 523.2,1667.8 523.2,1667.8 l 1166.7,236.4 c 0,0 -973.9,-2009.2 -1135.2,-2254.2 -266.6,-404.7 -1064.2,-1007.2 -1064.2,-1007.2 0,0 -86,32.3 -156.2,104.3"
         style="fill:#1c468a;fill-opacity:1;fill-rule:nonzero;stroke:none"
         id="path34" />
      <path
         d="m 22874.4,9033.5 c 12.2,-10.2 26.4,-16.2 42.6,-16.2 152,2 595.3,-82.4 970.3,-43.9 316.2,30.4 596.1,124 896.7,258.8 39.9,17.8 131.7,66.9 129.7,111.5 -1.4,48.8 -6.2,119.7 -12.3,208.9 -21.3,310.2 -58.4,843.8 -22.2,1459.4 6.5,114.6 9.9,228.3 10.3,340.3 3.1,834.2 -159.5,1572.2 -491.9,1820.5 -28.4,20.4 -205.6,-68.9 -365.7,-147.9 -148,-73 -251.5,-71.4 -391.3,-43.1 l -184.4,-133.3 c -170.2,-158.1 -356.8,-373 -437.8,-699.3 -69,-277.7 -109.5,-778.5 -131.8,-1297.4 -10.1,-235.1 -18.3,-472.3 -20.3,-697.4 v -8 c -2,-22.3 -2,-46.7 -2,-69 -8.2,-577.7 0,-1035.8 10.1,-1043.9"
         style="fill:#365da4;fill-opacity:1;fill-rule:nonzero;stroke:none"
         id="path36" />
      <path
         d="m 24901.4,9552.6 c -21.3,310.2 -58.4,843.8 -22.2,1459.4 6.5,114.6 9.9,228.3 10.3,340.3 -138.5,335.9 -251.7,579.5 -251.7,579.5 h -349 c 0,0 -255.9,-1747.9 612.6,-2379.2"
         style="fill:#1c468a;fill-opacity:1;fill-rule:nonzero;stroke:none"
         id="path38" />
      <path
         d="m 25580.4,9443.9 66.3,-114.2 c 0,0 -129.8,-274.9 178.1,-377.6 0,0 132.5,-33.4 143.9,58.5 11.3,91.8 -8.2,55.7 11,185.4 19.2,129.6 -31.4,245.1 -127.1,276 l -75.5,72.2 -196.7,-100.3"
         style="fill:#ffb27d;fill-opacity:1;fill-rule:nonzero;stroke:none"
         id="path40" />
      <path
         d="m 25756.1,9412.7 c -125.7,-24.5 -261.9,-14.6 -261.9,-14.6 0,0 -373.2,1152.8 -421.2,1258.1 -48,105.3 -1108.4,1351.6 -1108.4,1351.6 l 441.7,1105.4 c 0,0 1146.9,-1915.7 1263.4,-2184.9 192.4,-444.8 259.2,-1442.1 259.2,-1442.1 0,0 -74.1,-54.2 -172.8,-73.5"
         style="fill:#365da4;fill-opacity:1;fill-rule:nonzero;stroke:none"
         id="path42" />
      <path
         d="m 11054.9,11527.9 h 822.4 v 1027.2 h -822.4 v -1027.2"
         style="fill:#c65447;fill-opacity:1;fill-rule:nonzero;stroke:none"
         id="path44" />
      <path
         d="m 11259.5,11988 c 0,-114.1 92.5,-206.6 206.6,-206.6 114.1,0 206.6,92.5 206.6,206.6 0,114.1 -92.5,206.6 -206.6,206.6 -114.1,0 -206.6,-92.5 -206.6,-206.6"
         style="fill:#e57970;fill-opacity:1;fill-rule:nonzero;stroke:none"
         id="path46" />
      <path
         d="m 11480.8,11869.7 c -32.8,45.3 -15.8,113.6 -7,149.8 6.9,27.8 -10.8,57.5 -22.3,73.2 5.1,1.5 10.2,2.4 15.6,2.4 42,0 76.1,-50.9 76.1,-113.7 0,-55.7 -26.9,-102 -62.4,-111.7"
         style="fill:#c65447;fill-opacity:1;fill-rule:nonzero;stroke:none"
         id="path48" />
      <path
         d="m 11434.1,12083.8 c 16.6,-17.5 37,-46 26.1,-72.6 -18.2,-44.3 -12.7,-100.9 -4.3,-142 -36.7,8 -64.9,55.1 -64.9,112.2 0,45.2 17.6,84 43.1,102.4"
         style="fill:#c65447;fill-opacity:1;fill-rule:nonzero;stroke:none"
         id="path50" />
      <path
         d="m 11054.9,12344.6 h 822.4 v 15.8 h -822.4 v -15.8"
         style="fill:#e57970;fill-opacity:1;fill-rule:nonzero;stroke:none"
         id="path52" />
      <path
         d="m 5549.52,13888.3 h 3477.75 v 168.6 H 5549.52 v -168.6"
         style="fill:#1c468a;fill-opacity:1;fill-rule:nonzero;stroke:none"
         id="path54" />
      <path
         d="m 9623.34,11364.6 h 3203.56 v 168.6 H 9623.34 v -168.6"
         style="fill:#1c468a;fill-opacity:1;fill-rule:nonzero;stroke:none"
         id="path56" />
      <path
         d="m 13539.2,12324 h 5995.2 v 2748.64 h -5995.2 z"
         style="fill:#365da4;fill-opacity:1;fill-rule:nonzero;stroke:none"
         id="path58" />
      <path
         d="m 13806.6,14845.8 h 84.7 l 93.9,-151.1 93.9,151.1 h 84.7 v -357.2 h -78.1 v 233.2 l -100.5,-152.6 h -2.1 l -99.5,151 v -231.6 h -77 v 357.2"
         style="fill:#ffffff;fill-opacity:1;fill-rule:nonzero;stroke:none"
         id="path60" />
      <path
         d="m 14249.5,14845.8 h 269.4 v -70 h -191.4 v -72.4 h 168.4 v -69.9 h -168.4 v -75 h 193.9 v -69.9 h -271.9 v 357.2"
         style="fill:#ffffff;fill-opacity:1;fill-rule:nonzero;stroke:none"
         id="path62" />
      <path
         d="m 14591.3,14845.8 h 72.5 l 167.3,-220 v 220 h 77.6 v -357.2 h -66.8 l -173,227 v -227 h -77.6 v 357.2"
         style="fill:#ffffff;fill-opacity:1;fill-rule:nonzero;stroke:none"
         id="path64" />
      <path
         d="m 14988.8,14641.6 v 204.2 h 78.6 v -202.1 c 0,-58.2 29,-88.3 77,-88.3 48,0 77.1,29.1 77.1,85.7 v 204.7 h 78.5 v -201.6 c 0,-108.2 -60.7,-161.3 -156.6,-161.3 -95.9,0 -154.6,53.6 -154.6,158.7"
         style="fill:#ffffff;fill-opacity:1;fill-rule:nonzero;stroke:none"
         id="path66" />
      <path
         d="M 14926.8,14071 H 13857 c -30.8,0 -56,25.3 -56,56.1 v 63 c 0,30.8 25.2,56 56,56 h 1069.8 c 30.8,0 56,-25.2 56,-56 v -63 c 0,-30.8 -25.2,-56.1 -56,-56.1"
         style="fill:#5e7db6;fill-opacity:1;fill-rule:nonzero;stroke:none"
         id="path68" />
      <path
         d="m 15249.6,14071 h -16.4 c -48.2,0 -87.6,39.4 -87.6,87.6 v 0 c 0,48.1 39.4,87.5 87.6,87.5 h 16.4 c 48.2,0 87.6,-39.4 87.6,-87.5 v 0 c 0,-48.2 -39.4,-87.6 -87.6,-87.6"
         style="fill:#5e7db6;fill-opacity:1;fill-rule:nonzero;stroke:none"
         id="path70" />
      <path
         d="M 14926.8,13699.9 H 13857 c -30.8,0 -56,25.2 -56,56 v 63 c 0,30.8 25.2,56 56,56 h 1069.8 c 30.8,0 56,-25.2 56,-56 v -63 c 0,-30.8 -25.2,-56 -56,-56"
         style="fill:#5e7db6;fill-opacity:1;fill-rule:nonzero;stroke:none"
         id="path72" />
      <path
         d="m 15249.6,13699.9 h -16.4 c -48.2,0 -87.6,39.4 -87.6,87.5 0,48.2 39.4,87.5 87.6,87.5 h 16.4 c 48.2,0 87.6,-39.3 87.6,-87.5 0,-48.1 -39.4,-87.5 -87.6,-87.5"
         style="fill:#5e7db6;fill-opacity:1;fill-rule:nonzero;stroke:none"
         id="path74" />
      <path
         d="M 14926.8,13325.5 H 13857 c -30.8,0 -56,25.2 -56,56.1 v 63 c 0,30.8 25.2,56 56,56 h 1069.8 c 30.8,0 56,-25.2 56,-56 v -63 c 0,-30.9 -25.2,-56.1 -56,-56.1"
         style="fill:#5e7db6;fill-opacity:1;fill-rule:nonzero;stroke:none"
         id="path76" />
      <path
         d="m 15249.6,13325.5 h -16.4 c -48.2,0 -87.6,39.4 -87.6,87.6 0,48.1 39.4,87.5 87.6,87.5 h 16.4 c 48.2,0 87.6,-39.4 87.6,-87.5 0,-48.2 -39.4,-87.6 -87.6,-87.6"
         style="fill:#5e7db6;fill-opacity:1;fill-rule:nonzero;stroke:none"
         id="path78" />
      <path
         d="M 14926.8,12951.2 H 13857 c -30.8,0 -56,25.2 -56,56 v 63.1 c 0,30.8 25.2,56 56,56 h 1069.8 c 30.8,0 56,-25.2 56,-56 v -63.1 c 0,-30.8 -25.2,-56 -56,-56"
         style="fill:#5e7db6;fill-opacity:1;fill-rule:nonzero;stroke:none"
         id="path80" />
      <path
         d="m 15249.6,12951.2 h -16.4 c -48.2,0 -87.6,39.4 -87.6,87.5 0,48.2 39.4,87.6 87.6,87.6 h 16.4 c 48.2,0 87.6,-39.4 87.6,-87.6 0,-48.1 -39.4,-87.5 -87.6,-87.5"
         style="fill:#5e7db6;fill-opacity:1;fill-rule:nonzero;stroke:none"
         id="path82" />
      <path
         d="M 14926.8,12576.9 H 13857 c -30.8,0 -56,25.2 -56,56 v 63 c 0,30.8 25.2,56.1 56,56.1 h 1069.8 c 30.8,0 56,-25.3 56,-56.1 v -63 c 0,-30.8 -25.2,-56 -56,-56"
         style="fill:#5e7db6;fill-opacity:1;fill-rule:nonzero;stroke:none"
         id="path84" />
      <path
         d="m 15249.6,12576.9 h -16.4 c -48.2,0 -87.6,39.4 -87.6,87.5 0,48.2 39.4,87.6 87.6,87.6 h 16.4 c 48.2,0 87.6,-39.4 87.6,-87.6 0,-48.1 -39.4,-87.5 -87.6,-87.5"
         style="fill:#5e7db6;fill-opacity:1;fill-rule:nonzero;stroke:none"
         id="path86" />
      <path
         d="m 16964.9,14071 h -1069.8 c -30.8,0 -56,25.3 -56,56.1 v 63 c 0,30.8 25.2,56 56,56 h 1069.8 c 30.8,0 56,-25.2 56,-56 v -63 c 0,-30.8 -25.2,-56.1 -56,-56.1"
         style="fill:#5e7db6;fill-opacity:1;fill-rule:nonzero;stroke:none"
         id="path88" />
      <path
         d="m 17287.7,14071 h -16.4 c -48.2,0 -87.6,39.4 -87.6,87.6 v 0 c 0,48.1 39.4,87.5 87.6,87.5 h 16.4 c 48.2,0 87.6,-39.4 87.6,-87.5 v 0 c 0,-48.2 -39.4,-87.6 -87.6,-87.6"
         style="fill:#5e7db6;fill-opacity:1;fill-rule:nonzero;stroke:none"
         id="path90" />
      <path
         d="m 16964.9,13699.9 h -1069.8 c -30.8,0 -56,25.2 -56,56 v 63 c 0,30.8 25.2,56 56,56 h 1069.8 c 30.8,0 56,-25.2 56,-56 v -63 c 0,-30.8 -25.2,-56 -56,-56"
         style="fill:#5e7db6;fill-opacity:1;fill-rule:nonzero;stroke:none"
         id="path92" />
      <path
         d="m 17287.7,13699.9 h -16.4 c -48.2,0 -87.6,39.4 -87.6,87.5 0,48.2 39.4,87.5 87.6,87.5 h 16.4 c 48.2,0 87.6,-39.3 87.6,-87.5 0,-48.1 -39.4,-87.5 -87.6,-87.5"
         style="fill:#5e7db6;fill-opacity:1;fill-rule:nonzero;stroke:none"
         id="path94" />
      <path
         d="m 16964.9,13325.5 h -1069.8 c -30.8,0 -56,25.2 -56,56.1 v 63 c 0,30.8 25.2,56 56,56 h 1069.8 c 30.8,0 56,-25.2 56,-56 v -63 c 0,-30.9 -25.2,-56.1 -56,-56.1"
         style="fill:#5e7db6;fill-opacity:1;fill-rule:nonzero;stroke:none"
         id="path96" />
      <path
         d="m 17287.7,13325.5 h -16.4 c -48.2,0 -87.6,39.4 -87.6,87.6 0,48.1 39.4,87.5 87.6,87.5 h 16.4 c 48.2,0 87.6,-39.4 87.6,-87.5 0,-48.2 -39.4,-87.6 -87.6,-87.6"
         style="fill:#5e7db6;fill-opacity:1;fill-rule:nonzero;stroke:none"
         id="path98" />
      <path
         d="m 16964.9,12951.2 h -1069.8 c -30.8,0 -56,25.2 -56,56 v 63.1 c 0,30.8 25.2,56 56,56 h 1069.8 c 30.8,0 56,-25.2 56,-56 v -63.1 c 0,-30.8 -25.2,-56 -56,-56"
         style="fill:#5e7db6;fill-opacity:1;fill-rule:nonzero;stroke:none"
         id="path100" />
      <path
         d="m 17287.7,12951.2 h -16.4 c -48.2,0 -87.6,39.4 -87.6,87.5 0,48.2 39.4,87.6 87.6,87.6 h 16.4 c 48.2,0 87.6,-39.4 87.6,-87.6 0,-48.1 -39.4,-87.5 -87.6,-87.5"
         style="fill:#5e7db6;fill-opacity:1;fill-rule:nonzero;stroke:none"
         id="path102" />
      <path
         d="m 16964.9,12576.9 h -1069.8 c -30.8,0 -56,25.2 -56,56 v 63 c 0,30.8 25.2,56.1 56,56.1 h 1069.8 c 30.8,0 56,-25.3 56,-56.1 v -63 c 0,-30.8 -25.2,-56 -56,-56"
         style="fill:#5e7db6;fill-opacity:1;fill-rule:nonzero;stroke:none"
         id="path104" />
      <path
         d="m 17287.7,12576.9 h -16.4 c -48.2,0 -87.6,39.4 -87.6,87.5 0,48.2 39.4,87.6 87.6,87.6 h 16.4 c 48.2,0 87.6,-39.4 87.6,-87.6 0,-48.1 -39.4,-87.5 -87.6,-87.5"
         style="fill:#5e7db6;fill-opacity:1;fill-rule:nonzero;stroke:none"
         id="path106" />
      <path
         d="m 18862.2,14071 h -1069.7 c -30.9,0 -56.1,25.3 -56.1,56.1 v 63 c 0,30.8 25.2,56 56.1,56 h 1069.7 c 30.8,0 56.1,-25.2 56.1,-56 v -63 c 0,-30.8 -25.3,-56.1 -56.1,-56.1"
         style="fill:#5e7db6;fill-opacity:1;fill-rule:nonzero;stroke:none"
         id="path108" />
      <path
         d="m 19185.1,14071 h -16.5 c -48.2,0 -87.5,39.4 -87.5,87.6 v 0 c 0,48.1 39.3,87.5 87.5,87.5 h 16.5 c 48.1,0 87.5,-39.4 87.5,-87.5 v 0 c 0,-48.2 -39.4,-87.6 -87.5,-87.6"
         style="fill:#5e7db6;fill-opacity:1;fill-rule:nonzero;stroke:none"
         id="path110" />
      <path
         d="m 18862.2,13699.9 h -1069.7 c -30.9,0 -56.1,25.2 -56.1,56 v 63 c 0,30.8 25.2,56 56.1,56 h 1069.7 c 30.8,0 56.1,-25.2 56.1,-56 v -63 c 0,-30.8 -25.3,-56 -56.1,-56"
         style="fill:#5e7db6;fill-opacity:1;fill-rule:nonzero;stroke:none"
         id="path112" />
      <path
         d="m 19185.1,13699.9 h -16.5 c -48.2,0 -87.5,39.4 -87.5,87.5 0,48.2 39.3,87.5 87.5,87.5 h 16.5 c 48.1,0 87.5,-39.3 87.5,-87.5 0,-48.1 -39.4,-87.5 -87.5,-87.5"
         style="fill:#5e7db6;fill-opacity:1;fill-rule:nonzero;stroke:none"
         id="path114" />
      <path
         d="m 18862.2,13325.5 h -1069.7 c -30.9,0 -56.1,25.2 -56.1,56.1 v 63 c 0,30.8 25.2,56 56.1,56 h 1069.7 c 30.8,0 56.1,-25.2 56.1,-56 v -63 c 0,-30.9 -25.3,-56.1 -56.1,-56.1"
         style="fill:#5e7db6;fill-opacity:1;fill-rule:nonzero;stroke:none"
         id="path116" />
      <path
         d="m 19185.1,13325.5 h -16.5 c -48.2,0 -87.5,39.4 -87.5,87.6 0,48.1 39.3,87.5 87.5,87.5 h 16.5 c 48.1,0 87.5,-39.4 87.5,-87.5 0,-48.2 -39.4,-87.6 -87.5,-87.6"
         style="fill:#5e7db6;fill-opacity:1;fill-rule:nonzero;stroke:none"
         id="path118" />
      <path
         d="m 18862.2,12951.2 h -1069.7 c -30.9,0 -56.1,25.2 -56.1,56 v 63.1 c 0,30.8 25.2,56 56.1,56 h 1069.7 c 30.8,0 56.1,-25.2 56.1,-56 v -63.1 c 0,-30.8 -25.3,-56 -56.1,-56"
         style="fill:#5e7db6;fill-opacity:1;fill-rule:nonzero;stroke:none"
         id="path120" />
      <path
         d="m 19185.1,12951.2 h -16.5 c -48.2,0 -87.5,39.4 -87.5,87.5 0,48.2 39.3,87.6 87.5,87.6 h 16.5 c 48.1,0 87.5,-39.4 87.5,-87.6 0,-48.1 -39.4,-87.5 -87.5,-87.5"
         style="fill:#5e7db6;fill-opacity:1;fill-rule:nonzero;stroke:none"
         id="path122" />
      <path
         d="m 18862.2,12576.9 h -1069.7 c -30.9,0 -56.1,25.2 -56.1,56 v 63 c 0,30.8 25.2,56.1 56.1,56.1 h 1069.7 c 30.8,0 56.1,-25.3 56.1,-56.1 v -63 c 0,-30.8 -25.3,-56 -56.1,-56"
         style="fill:#5e7db6;fill-opacity:1;fill-rule:nonzero;stroke:none"
         id="path124" />
      <path
         d="m 19185.1,12576.9 h -16.5 c -48.2,0 -87.5,39.4 -87.5,87.5 0,48.2 39.3,87.6 87.5,87.6 h 16.5 c 48.1,0 87.5,-39.4 87.5,-87.6 0,-48.1 -39.4,-87.5 -87.5,-87.5"
         style="fill:#5e7db6;fill-opacity:1;fill-rule:nonzero;stroke:none"
         id="path126" />
      <path
         d="m 13048.4,13854.7 c 0,0 -41.3,84.6 -247.9,61.4 -206.7,-23.2 -264.9,-208.8 -274.4,-332.5 -9.6,-123.7 -449.4,-1603.3 -381,-2003.3 l 781.2,344.6 122.1,1929.8"
         style="fill:#163560;fill-opacity:1;fill-rule:nonzero;stroke:none"
         id="path128" />
      <path
         d="m 13108.1,13839.8 c 0,0 -220.4,74.4 -336.4,-35.8 -116,-110.2 -50.3,-256 -50.3,-256 l 386.7,291.8"
         style="fill:#c65447;fill-opacity:1;fill-rule:nonzero;stroke:none"
         id="path130" />
      <path
         d="m 13804,13405.7 c 0,0 -4.1,485.9 -786.1,430 -132.9,-9.5 -253.5,-85.6 -314.2,-204.2 -87.9,-172 -126.3,-474.6 157.9,-959.8 l 942.4,734"
         style="fill:#163560;fill-opacity:1;fill-rule:nonzero;stroke:none"
         id="path132" />
      <path
         d="m 12814,11979 176.2,-688.7 509.2,-24.9 253.3,379.7 c -236.9,179.6 -270.4,494.4 -266.9,681.2 0,1.8 0.1,3.6 0.1,5.5 2,87.9 12,146.1 12,146.1 l -361.2,110 -275.1,83.8 c 25.3,-209.9 23.6,-361.4 12.2,-468.1 -18,-167 -59.8,-224.6 -59.8,-224.6"
         style="fill:#a86337;fill-opacity:1;fill-rule:nonzero;stroke:none"
         id="path134" />
      <path
         d="m 17136.8,9217.8 h 502.7 l 162.4,-534.3 h -127.6 v -296.3 h -305.5 v 296.3 H 17249 l -112.2,534.3"
         style="fill:#1c468a;fill-opacity:1;fill-rule:nonzero;stroke:none"
         id="path136" />
      <path
         d="m 17723.8,8735.2 h -423.1 l -85.8,430.9 h 384.6 l 124.3,-430.9"
         style="fill:#8fa9cd;fill-opacity:1;fill-rule:nonzero;stroke:none"
         id="path138" />
      <path
         d="m 17280.6,9115.7 h 301.6 c 5.4,0 9.7,-4.4 9.7,-9.7 0,-5.3 -4.3,-9.7 -9.7,-9.7 h -301.6 c -5.3,0 -9.6,4.4 -9.6,9.7 0,5.3 4.3,9.7 9.6,9.7"
         style="fill:#1c468a;fill-opacity:1;fill-rule:nonzero;stroke:none"
         id="path140" />
      <path
         d="m 17286,9078.9 h 303 c 5.3,0 9.7,-4.3 9.7,-9.6 0,-5.4 -4.4,-9.7 -9.7,-9.7 h -303 c -5.3,0 -9.7,4.3 -9.7,9.7 0,5.3 4.4,9.6 9.7,9.6"
         style="fill:#1c468a;fill-opacity:1;fill-rule:nonzero;stroke:none"
         id="path142" />
      <path
         d="m 17363,8792.5 h 301.6 c 5.3,0 9.7,-4.4 9.7,-9.7 0,-5.3 -4.4,-9.7 -9.7,-9.7 H 17363 c -5.3,0 -9.6,4.4 -9.6,9.7 0,5.3 4.3,9.7 9.6,9.7"
         style="fill:#1c468a;fill-opacity:1;fill-rule:nonzero;stroke:none"
         id="path144" />
      <path
         d="M 17214.9,10078.8 H 15185 l -324.8,-1309.5 h 2006.7 l 348,1309.5"
         style="fill:#365da4;fill-opacity:1;fill-rule:nonzero;stroke:none"
         id="path146" />
      <path
         d="m 12227.6,11827 c 88.3,163.7 563.9,166.4 563.9,166.4 45.9,-55.4 303.1,-225.6 610.4,-231 216.5,-3.8 131.8,206.1 131.8,206.1 10.6,-1.5 57,9 67.8,5.5 65.3,-20.9 112,-66.3 143.3,-109 -2,40.3 -3.1,64.1 -3.1,64.1 0,0 451.4,-123.1 1099.2,-1222.6 19.1,-32.6 73.8,-27.3 201,-2.6 161.9,31.5 492.4,27.4 991,100.6 0,0 17.1,-12.4 21.8,-66.9 10.3,-120.4 22.3,-156 22.3,-156 0,0 -328.3,-154.8 -677.5,-265.3 -123.5,-39.2 -252.7,-75.8 -375.9,-103.4 -114.8,-25.6 -224.5,-43.5 -319.7,-48 0,0 -257.6,98.9 -559.1,358.9 24.7,-175.2 37.1,-300.6 35.9,-314.6 -12.8,-163 6.1,-414.9 6.1,-414.9 0,0 -1308.9,-356.7 -1694.4,-173.5 -63.6,30.3 -102.1,75.2 -105.4,138.8 -37.8,713.1 -205,1291.9 -221.3,1691.6 -6.4,152 9.1,278 61.9,375.8"
         style="fill:#f4be61;fill-opacity:1;fill-rule:nonzero;stroke:none"
         id="path148" />
      <path
         d="m 12783.1,11047.3 c -234.2,72.8 -468.6,-111.8 -452.7,-356.5 15.6,-240.9 34.9,-522 56.6,-931.2 3.3,-63.6 41.8,-108.5 105.4,-138.8 l 374.8,777.6 -84.1,648.9 v 0"
         style="fill:#f2a83d;fill-opacity:1;fill-rule:nonzero;stroke:none"
         id="path150" />
      <path
         d="m 16668.7,9655.3 h -893.1 l -342.2,-1268.1 h 939.6 l 295.7,1268.1"
         style="fill:#365da4;fill-opacity:1;fill-rule:nonzero;stroke:none"
         id="path152" />
      <path
         d="m 12200.2,8502.4 177.8,1297.8 c 2.6,18.9 10.7,36.3 22.4,51.1 224,282 247.3,1163.6 247.8,1500.1 0.1,72.1 56.7,130.2 126.6,131.1 -5.3,16.1 -108.2,328 -203,484.2 -17.5,28.7 0.1,65.9 33.4,70.7 17.4,2.5 34.7,-4.8 44.9,-19.1 51.3,-71.7 205.9,-299.9 276.2,-536.5 h -48 l 42.7,-0.4 c 3.6,0 7.2,-0.2 10.8,-0.7 400.1,-49.2 740.9,-24.9 944.1,1.1 h -29.9 c 0,0 -88.6,269.1 -178.2,441.8 -19.9,38.3 17.4,81.2 58.2,66.8 l 1.3,-0.5 c 9.5,-3.4 17.5,-9.5 23.2,-17.8 67.4,-97.7 182,-274 242.6,-475.8 48.2,-3.5 88.7,-42.5 93.1,-94.2 l 52.2,-609.6 71.6,-835.1 c 25.7,-185 19.4,-1151.1 16.5,-1470.4 -0.6,-56.9 -45.6,-102.6 -101,-102.6 h -1825.4 c -61.3,0 -108.5,55.6 -99.9,118"
         style="fill:#ee9849;fill-opacity:1;fill-rule:nonzero;stroke:none"
         id="path154" />
      <path
         d="m 15775.6,9655.3 h -60.4 l -376.3,-1268.1 h 102.3 l 334.4,1268.1"
         style="fill:#1c468a;fill-opacity:1;fill-rule:nonzero;stroke:none"
         id="path156" />
      <path
         d="m 15185,10078.8 h -35.2 l -328.7,-1309.5 h 39.1 l 324.8,1309.5"
         style="fill:#1c468a;fill-opacity:1;fill-rule:nonzero;stroke:none"
         id="path158" />
      <path
         d="m 13621.7,12316.1 c 0,0 -776.1,-35.4 -790.8,448.3 -14.6,483.7 -124.7,804.8 370.3,847.9 494.9,43.1 596.8,-138.5 641,-298.8 44.1,-160.2 -19,-975.7 -220.5,-997.4"
         style="fill:#b77446;fill-opacity:1;fill-rule:nonzero;stroke:none"
         id="path160" />
      <path
         d="m 13133.7,13661.1 c 0,0 132.9,42.3 345.5,42.3 212.7,0 464,-158.5 494.9,-409.8 31,-251.3 -128.1,-347.9 -128.1,-347.9 37,267.9 -308.8,475.5 -308.8,475.5 l -2.9,1.7 c -134.5,-56.5 -376.8,-135.1 -399.2,-283.9 -34.8,-232 -306.2,-320.8 -306.2,-320.8 0,0 -232.6,863.8 304.8,842.9"
         style="fill:#163560;fill-opacity:1;fill-rule:nonzero;stroke:none"
         id="path162" />
      <path
         d="m 13714.7,12579.4 c 0,0 -5.6,-49.2 -125.4,-55.9 0,0 -100.6,-5.6 -103.8,47.3 0,0 92.5,48.9 229.2,8.6"
         style="fill:#ffffff;fill-opacity:1;fill-rule:nonzero;stroke:none"
         id="path164" />
      <path
         d="M 17055.3,8390.8 V 2862.4 H 4602.78 V 8390.8 H 17055.3"
         style="fill:#c65447;fill-opacity:1;fill-rule:nonzero;stroke:none"
         id="path166" />
      <path
         d="m 19664.9,2973.9 c -9.6,-119 -177.6,-119 -368,-95.5 -190.4,23.5 -140.1,-25.1 -407,-26.8 -266.9,-1.8 -358.2,87.1 -370.9,125.4 -11.2,33.9 117.5,61.4 255.3,93.9 17.3,4 34.7,8.2 52.1,12.5 155.3,38.3 289.5,122.3 392.2,253.9 115.8,148.3 221.6,823.7 221.6,823.7 l 417.1,-77.8 c 0,0 -242.8,-578.9 -267.7,-768.7 -11.2,-85.3 49.4,-142.1 63.6,-216.7 7.6,-40.5 15.2,-82 11.7,-123.9"
         style="fill:#b77446;fill-opacity:1;fill-rule:nonzero;stroke:none"
         id="path168" />
      <path
         d="m 18519.1,2976.9 c 9.9,-30.4 70.1,-93.1 229.4,-116.3 h 296.9 c 101.6,13.4 111.5,35.1 251.5,17.8 190.5,-23.5 358.5,-23.4 368,95.5 3.5,41.9 -4.1,83.4 -11.7,123.9 -123.7,-12.5 -307,-85.9 -486.2,-102.5 -220,-20.5 -391.1,73.1 -391.1,73.1 l -1.7,2.5 c -137.7,-32.5 -266.4,-60 -255.1,-94"
         style="fill:#365da4;fill-opacity:1;fill-rule:nonzero;stroke:none"
         id="path170" />
      <path
         d="m 19292,3674.7 c 0,0 109.3,-72.3 212,-91 154.1,-28 225.6,3.1 225.6,3.1 0,0 741,1860.5 698.7,2489.2 -1,15.2 -1.6,31.2 -1.8,48.2 -1.2,109.1 14.5,254.4 41.6,421.8 10,61.3 21.4,125.6 34.2,192 29.7,155 66.5,322.3 106.9,492.8 17.8,75 36.4,150.8 55.2,226.4 186.3,743.9 413.9,1477 413.9,1477 0,0 -1337.1,436.8 -1412.8,28.5 -29,-156.6 -125.7,-783.5 -82.2,-1742.1 35.2,-771.6 12.5,-1373.5 -54.2,-2072 -58.6,-613.5 -158.9,-1141.2 -237.1,-1473.9"
         style="fill:#365da4;fill-opacity:1;fill-rule:nonzero;stroke:none"
         id="path172" />
      <path
         d="m 20426.5,6124.2 c -1.2,109.1 14.5,254.4 41.6,421.8 10,61.3 21.4,125.6 34.2,192 29.7,155 66.5,322.3 106.9,492.8 17.8,75 36.4,150.8 55.2,226.4 -26.4,227 -47.7,382.7 -47.7,382.7 0,0 -555.2,-754 -190.2,-1715.7"
         style="fill:#285493;fill-opacity:1;fill-rule:nonzero;stroke:none"
         id="path174" />
      <path
         d="m 20205.9,2976.9 c 9.4,-28.5 62.8,-85.2 200.3,-111.4 h 357.8 c 73.9,13 95.9,28.2 219.9,12.9 190.4,-23.5 358.3,-23.4 368,95.5 3.4,41.9 -4.1,83.4 -11.7,123.9 -14.2,74.6 -63.7,130.7 -63.7,216.6 0,255.3 59.2,719 59.2,719 l -392.2,-140 c 0,0 88.5,-461.1 -37.9,-556.1 -133.5,-100.4 -236.9,-215.6 -392.3,-253.9 -17.4,-4.3 -34.8,-8.5 -52.1,-12.5 -137.8,-32.5 -266.5,-60 -255.3,-94"
         style="fill:#b77446;fill-opacity:1;fill-rule:nonzero;stroke:none"
         id="path176" />
      <path
         d="m 20205.9,2976.9 c 9.4,-28.5 62.8,-85.3 200.4,-111.4 h 357.8 c 73.8,13 95.8,28.2 219.8,12.9 190.4,-23.5 358.3,-23.4 368,95.5 3.4,41.9 -4.1,83.4 -11.7,123.9 -123.7,-12.5 -307.1,-85.9 -486.3,-102.5 -219.9,-20.5 -391.1,73.1 -391.1,73.1 l -1.6,2.5 c -137.8,-32.5 -266.5,-60 -255.3,-94"
         style="fill:#365da4;fill-opacity:1;fill-rule:nonzero;stroke:none"
         id="path178" />
      <path
         d="m 20272.9,9079.8 c 0,0 435,-2168.3 508.5,-3348.4 73.5,-1180.1 165.2,-2157.1 165.2,-2157.1 0,0 95,-34.2 203.9,-28 115,6.6 206.2,42 206.2,42 0,0 431.2,1775.6 288.4,2486.3 -142.8,710.7 -23.9,1366.2 44.7,1955.7 98.3,845.2 -279.9,1238.1 -544,1505.9 -267.2,271.1 -872.9,-456.4 -872.9,-456.4"
         style="fill:#365da4;fill-opacity:1;fill-rule:nonzero;stroke:none"
         id="path180" />
      <path
         d="m 19964.5,13051.1 c -43.2,353 67,917.9 771.6,827.6 704.6,-90.3 926.6,-782.7 784.5,-1090.6 -142.1,-307.9 204.6,-382.1 313.4,-713.2 93.5,-284.4 126.1,-637.6 277.4,-796 487.7,-511 -468.3,-1296.8 -1044.6,-1131.1 -1049.8,301.8 -1185,346.8 -1147.7,1171.7 19,422.6 347.8,586.3 139.1,708.6 -504.3,295.4 4.1,224.2 -93.7,1023"
         style="fill:#c45446;fill-opacity:1;fill-rule:nonzero;stroke:none"
         id="path182" />
      <path
         d="m 20119.4,12138 c 10.7,0 95,26 236.8,39.5 69.2,208.2 31.7,426.2 31.7,426.2 l 524.2,159.6 c 25,-552.5 74.4,-625.7 85.5,-635.2 108.5,-25.8 224.8,-62.1 347.4,-112 0,0 -334.6,-1914.8 -190.9,-2280.2 143.8,-365.5 198.4,-689.8 198.4,-689.8 l -1559.6,-19.3 c 0,0 21.8,1254.3 -50,1698.2 -71.9,443.9 376.5,1413 376.5,1413"
         style="fill:#e49963;fill-opacity:1;fill-rule:nonzero;stroke:none"
         id="path184" />
      <path
         d="m 20251,12568.1 c 0,0 627.6,-126 700,266 72.5,392 202.3,639.8 -195.3,736.8 -397.6,97 -503.3,-38.1 -559.4,-163.1 -56,-124.9 -106.7,-796.8 54.7,-839.7"
         style="fill:#e49963;fill-opacity:1;fill-rule:nonzero;stroke:none"
         id="path186" />
      <path
         d="m 17529.2,10849.6 c 4.6,54.6 21.8,67 21.8,67 498.6,-73.2 829.1,-69.1 991,-100.7 127.1,-24.6 179.2,-28.2 201,2.6 688.8,968.6 1176.3,1272.8 1176.3,1272.8 0,0 52,30.9 255.4,58.9 0,0 29.2,-368.2 218.5,-399.5 327.3,-54 591.1,245.8 668.2,366.6 0,0 375.9,-94.9 486.2,-220.7 79.3,-90.3 69,-306.6 45.4,-442.6 -7.4,-43.1 -16.2,-78.2 -23.9,-98.6 -23.2,-61.5 -111.3,-513 -151.4,-692.8 -1,-4.6 -1.9,-8.8 -2.7,-12.7 -2.8,-12 -5.3,-22.6 -7.5,-31.4 l -0.2,-0.7 c -2.3,-9.6 -4.3,-17.1 -5.9,-22 -0.9,-2.9 -1.8,-5.8 -2.8,-8.7 l -0.2,-0.6 c -58,-184.9 -92.9,-373.3 -72.3,-604.4 2.4,-27.2 8.7,-59.9 17.9,-96.8 52.4,-268.6 270,-798 315.2,-1041 -26,-54.9 -85,-98.4 -156.8,-133 -93.7,-45.2 -208.8,-75.4 -300.5,-96.4 -71,-16.3 -180.1,-34.6 -306,-48.7 -66.8,-7.5 -138.3,-13.8 -211.1,-18 -10.3,-0.7 -20.5,-1.2 -30.7,-1.7 -469.9,-23.3 -996,-11.8 -1064.5,211.6 -32.9,107.2 98.1,751.5 115.6,943 30.5,336.4 -19.2,797 -41.7,1153.6 -385.6,-424.9 -783.5,-577.7 -783.5,-577.7 -95.3,4.5 -205,22.3 -319.7,48 -123.3,27.5 -252.4,64.1 -376,103.3 -349.2,110.6 -677.5,265.4 -677.5,265.4 0,0 12.1,35.6 22.4,155.9"
         style="fill:#a8d29f;fill-opacity:1;fill-rule:nonzero;stroke:none"
         id="path188" />
      <path
         d="m 20188.4,13641.1 c 309.6,305.1 621.6,200.7 621.6,200.7 0,0 156.4,-177.4 262.5,-296.9 185.6,-208.7 -162.2,-862.6 -162.2,-862.6 0,0 49.2,402.3 -157.2,627.9 -98.4,107.5 -147.3,194 -171.6,255 -38.8,-30.9 -81,-56.9 -125.4,-72.5 -199.7,-70.1 -309.4,-391.3 -309.4,-391.3 -71.5,149.9 -91.6,408.3 41.7,539.7"
         style="fill:#c45446;fill-opacity:1;fill-rule:nonzero;stroke:none"
         id="path190" />
      <path
         d="m 20446.5,12761 c 0,0 -16.8,-46.6 -134.9,-25.4 0,0 -99.2,17.7 -90.1,69.9 0,0 101.2,26.2 225,-44.5"
         style="fill:#ffffff;fill-opacity:1;fill-rule:nonzero;stroke:none"
         id="path192" />
      <path
         d="m 20320.5,9266.5 c 89,-301.9 140.8,-550.3 364.3,-718.3 72.8,4.2 144.3,10.5 211.1,18 125.9,14.1 235,32.4 306,48.7 91.7,21 206.8,51.2 300.5,96.4 71.8,34.6 130.8,78.1 156.8,133 -45.2,243 -262.8,772.4 -315.2,1041 -5.1,26.1 -8.7,49.7 -10.4,70.4 -19.4,240.5 11.8,438.1 64.8,630.8 l 0.2,0.6 c 2.9,10.2 5.8,20.4 8.7,30.7 l 0.2,0.7 c 1.9,6.7 4.4,17.4 7.5,31.4 0.8,3.9 1.7,8.1 2.7,12.7 35.8,170.3 129.7,704.8 153.6,774.5 7.5,22.1 16,59.9 23.4,106.5 l -187.8,180.7 c 0,0 -1077.3,-460.1 -1314.7,-1094.7 -237.3,-634.5 100.5,-930 228.3,-1363.1"
         style="fill:#82b378;fill-opacity:1;fill-rule:nonzero;stroke:none"
         id="path194" />
      <path
         d="m 18184.4,10428.3 c 238.4,-75.6 497.9,-141.9 695.6,-151.3 0,0 403.3,154.8 791.2,586.2 16.4,73.3 32.1,196.2 -56.6,160.8 -124.6,-49.8 -585.2,-641.2 -759.6,-653.6 -124.7,-8.9 -479.3,33.2 -670.6,57.9"
         style="fill:#82b378;fill-opacity:1;fill-rule:nonzero;stroke:none"
         id="path196" />
      <path
         d="m 19035.2,10596.8 c 0,0 531.1,-266.8 991.5,-377.2 132.5,-31.7 260.1,-54.2 369,-59.3 0,0 495.2,152.3 873,681.6 729.9,1022.4 166.4,1132.7 166.4,1132.7 0,0 -487.6,-304.2 -1176.3,-1272.8 -24.1,-33.9 -84.6,-26.2 -241.3,5.4 -167.3,33.8 -500.4,29.8 -960.1,97.3 0,0 -7.8,-17.1 -12.4,-71.6 -10.4,-120.3 -9.8,-136.1 -9.8,-136.1"
         style="fill:#a8d29f;fill-opacity:1;fill-rule:nonzero;stroke:none"
         id="path198" />
      <path
         d="m 16983.8,11000.4 c 59.5,56.1 339.8,21 444.9,-31.5 40.2,-20.1 83.5,-36.1 121.7,-48.2 490.5,-71.1 831.3,-73.5 991.6,-104.8 33.6,-99.3 67.8,-270.8 18.3,-490.9 -123.3,27.5 -252.4,64.1 -376,103.3 -333,105.5 -647,251.1 -675.4,264.4 -49.6,7.7 -116.7,14.5 -206.3,16.9 -255.8,7 -378.4,234.8 -318.8,290.8"
         style="fill:#e49963;fill-opacity:1;fill-rule:nonzero;stroke:none"
         id="path200" />
      <path
         d="m 18391.6,10924.6 c 63.6,59.8 362.8,22.4 475,-33.7 65.6,-32.8 138.8,-55.4 188.3,-68.5 l 0.2,0.8 c 459.7,-67.5 795.1,-82.2 962.4,-116 -52.3,-112.9 -91.8,-287.6 9.2,-487.6 -439.7,105.5 -955,340.7 -1000.5,361.7 -51.6,13.1 -143,28.7 -294.3,32.8 -273,7.5 -403.9,250.6 -340.3,310.5"
         style="fill:#e49963;fill-opacity:1;fill-rule:nonzero;stroke:none"
         id="path202" />
      <path
         d="m 14744.7,10519.8 c 0,0 -531,-266.8 -991.5,-377.2 -132.5,-31.7 -260.1,-54.2 -369,-59.4 0,0 -495.1,152.3 -873,681.7 -729.9,1022.4 -166.4,1132.7 -166.4,1132.7 0,0 487.6,-304.2 1176.3,-1272.8 24.1,-33.9 84.6,-26.2 241.3,5.4 167.3,33.8 500.4,29.8 960.1,97.3 0,0 7.8,-17.1 12.5,-71.6 10.3,-120.4 9.7,-136.1 9.7,-136.1"
         style="fill:#f4be61;fill-opacity:1;fill-rule:nonzero;stroke:none"
         id="path204" />
      <path
         d="m 15041.9,10703.9 c 160.3,31.2 501,33.7 991.6,104.7 38.1,12.1 81.4,28.1 121.7,48.2 105.1,52.6 385.3,87.6 444.9,31.6 59.5,-56.1 -63.1,-283.8 -318.8,-290.8 -89.6,-2.5 -156.8,-9.2 -206.4,-17 -28.3,-13.2 -342.4,-158.9 -675.4,-264.3 -123.5,-39.2 -252.7,-75.8 -375.9,-103.4 -49.5,220.1 -15.3,391.6 18.3,491"
         style="fill:#a86337;fill-opacity:1;fill-rule:nonzero;stroke:none"
         id="path206" />
      <path
         d="m 14924.2,11355.8 6.1,-137.7 12.6,-288 5.7,-132.6 h 365.4 l 8.3,132.6 18,288 8.6,137.7 h -424.7"
         style="fill:#c65447;fill-opacity:1;fill-rule:nonzero;stroke:none"
         id="path208" />
      <path
         d="m 14917.3,11448.9 h 432.9 l 17.8,-93.1 h -462.9 l 12.2,93.1"
         style="fill:#e57970;fill-opacity:1;fill-rule:nonzero;stroke:none"
         id="path210" />
      <path
         d="m 14930.3,11218.1 12.6,-288 h 379.4 l 18,288 h -410"
         style="fill:#e57970;fill-opacity:1;fill-rule:nonzero;stroke:none"
         id="path212" />
      <path
         d="m 15587.2,11355.8 6,-137.7 12.6,-288 5.8,-132.6 h 365.4 l 8.3,132.6 17.9,288 8.6,137.7 h -424.6"
         style="fill:#c65447;fill-opacity:1;fill-rule:nonzero;stroke:none"
         id="path214" />
      <path
         d="m 15580.2,11448.9 h 432.9 l 17.8,-93.1 H 15568 l 12.2,93.1"
         style="fill:#e57970;fill-opacity:1;fill-rule:nonzero;stroke:none"
         id="path216" />
      <path
         d="m 15593.2,11218.1 12.6,-288 h 379.5 l 17.9,288 h -410"
         style="fill:#e57970;fill-opacity:1;fill-rule:nonzero;stroke:none"
         id="path218" />
      <path
         d="m 14560,10701 h 1832.9 v 96.5 H 14560 v -96.5"
         style="fill:#1c468a;fill-opacity:1;fill-rule:nonzero;stroke:none"
         id="path220" />
      <path
         d="m 13753.2,10142.6 c 101.1,199.9 61.6,374.6 9.2,487.6 167.3,33.8 502.7,48.5 962.5,116 l 0.1,-0.8 c 49.5,13.1 122.8,35.7 188.4,68.5 112.2,56 411.4,93.5 474.9,33.6 63.6,-59.8 -67.3,-302.9 -340.3,-310.4 -151.2,-4.2 -242.7,-19.8 -294.3,-32.9 -45.4,-20.9 -560.7,-256.2 -1000.5,-361.6"
         style="fill:#b77446;fill-opacity:1;fill-rule:nonzero;stroke:none"
         id="path222" />
      <path
         d="m 18428.7,8390.8 c 208.7,0 379.3,-189.1 379.3,-420.2 0,-231.1 -170.6,-420.2 -379.3,-420.2 H 3270.27 c -232.09,0 -420.23,188.1 -420.23,420.2 0,232.1 188.14,420.2 420.23,420.2 H 18428.7"
         style="fill:#e57970;fill-opacity:1;fill-rule:nonzero;stroke:none"
         id="path224" />
      <path
         d="m 5753.56,14056.9 h 822.39 v 1027.3 h -822.39 v -1027.3"
         style="fill:#f4be61;fill-opacity:1;fill-rule:nonzero;stroke:none"
         id="path226" />
      <path
         d="m 6862.77,14056.9 h 822.39 v 1027.3 h -822.39 v -1027.3"
         style="fill:#c65447;fill-opacity:1;fill-rule:nonzero;stroke:none"
         id="path228" />
      <path
         d="m 7930.74,14056.9 h 822.39 v 1027.3 h -822.39 v -1027.3"
         style="fill:#a8d29f;fill-opacity:1;fill-rule:nonzero;stroke:none"
         id="path230" />
      <path
         d="m 5836.48,14559.9 c 0,-173.3 140.5,-313.8 313.81,-313.8 173.32,0 313.82,140.5 313.82,313.8 0,173.3 -140.5,313.8 -313.82,313.8 -173.31,0 -313.81,-140.5 -313.81,-313.8"
         style="fill:#e57970;fill-opacity:1;fill-rule:nonzero;stroke:none"
         id="path232" />
      <path
         d="m 7067.39,14517.1 c 0,-114.1 92.49,-206.6 206.58,-206.6 114.09,0 206.58,92.5 206.58,206.6 0,114.1 -92.49,206.6 -206.58,206.6 -114.09,0 -206.58,-92.5 -206.58,-206.6"
         style="fill:#e57970;fill-opacity:1;fill-rule:nonzero;stroke:none"
         id="path234" />
      <path
         d="m 8085.81,14534.2 c 0,-159.1 129.01,-288.1 288.16,-288.1 159.15,0 288.16,129 288.16,288.1 0,159.2 -129.01,288.2 -288.16,288.2 -159.15,0 -288.16,-129 -288.16,-288.2"
         style="fill:#c65447;fill-opacity:1;fill-rule:nonzero;stroke:none"
         id="path236" />
      <path
         d="m 8391.34,14392.3 c -41.47,57.1 -20.04,143.3 -8.83,189 8.62,35.1 -13.62,72.6 -28.14,92.4 6.33,1.9 12.88,3 19.6,3 53.05,0 96.05,-64.2 96.05,-143.4 0,-70.4 -33.94,-128.8 -78.68,-141"
         style="fill:#a8d29f;fill-opacity:1;fill-rule:nonzero;stroke:none"
         id="path238" />
      <path
         d="m 8332.42,14662.4 c 20.88,-22 46.64,-58 32.83,-91.6 -22.95,-55.8 -15.93,-127.3 -5.36,-179.2 -46.35,10.2 -81.97,69.6 -81.97,141.7 0,56.9 22.29,106 54.5,129.1"
         style="fill:#a8d29f;fill-opacity:1;fill-rule:nonzero;stroke:none"
         id="path240" />
      <path
         d="m 7288.72,14398.8 c -32.86,45.3 -15.87,113.6 -6.99,149.8 6.83,27.8 -10.79,57.5 -22.3,73.2 5.02,1.5 10.21,2.4 15.53,2.4 42.03,0 76.11,-50.9 76.11,-113.7 0,-55.7 -26.9,-102 -62.35,-111.7"
         style="fill:#c65447;fill-opacity:1;fill-rule:nonzero;stroke:none"
         id="path242" />
      <path
         d="m 7242.04,14612.9 c 16.54,-17.5 36.96,-46 26.02,-72.6 -18.19,-44.3 -12.63,-100.9 -4.25,-142.1 -36.73,8.1 -64.96,55.2 -64.96,112.3 0,45.2 17.66,84 43.19,102.4"
         style="fill:#c65447;fill-opacity:1;fill-rule:nonzero;stroke:none"
         id="path244" />
      <path
         d="m 6168.75,14409.1 c -44.07,60.7 -21.29,152.3 -9.37,200.9 9.16,37.4 -14.48,77.2 -29.92,98.2 6.73,2.1 13.69,3.2 20.83,3.2 56.39,0 102.1,-68.2 102.1,-152.4 0,-74.8 -36.08,-136.9 -83.64,-149.9"
         style="fill:#f4be61;fill-opacity:1;fill-rule:nonzero;stroke:none"
         id="path246" />
      <path
         d="m 6106.13,14696.3 c 22.2,-23.4 49.58,-61.7 34.9,-97.4 -24.39,-59.4 -16.94,-135.3 -5.7,-190.6 -49.27,10.9 -87.13,74.1 -87.13,150.7 0,60.5 23.69,112.6 57.93,137.3"
         style="fill:#f4be61;fill-opacity:1;fill-rule:nonzero;stroke:none"
         id="path248" />
      <path
         d="m 5753.56,14985.5 h 822.39 v 15.8 h -822.39 v -15.8"
         style="fill:#ee9849;fill-opacity:1;fill-rule:nonzero;stroke:none"
         id="path250" />
      <path
         d="m 6862.77,14873.7 h 822.39 v 15.8 h -822.39 v -15.8"
         style="fill:#e57970;fill-opacity:1;fill-rule:nonzero;stroke:none"
         id="path252" />
      <path
         d="m 7930.74,15019.1 h 822.39 v 15.8 h -822.39 v -15.8"
         style="fill:#66a357;fill-opacity:1;fill-rule:nonzero;stroke:none"
         id="path254" />
      <path
         d="m 10032.5,11527.9 h 822.4 v 1027.2 h -822.4 v -1027.2"
         style="fill:#a8d29f;fill-opacity:1;fill-rule:nonzero;stroke:none"
         id="path256" />
      <path
         d="m 10187.6,12005.1 c 0,-159.1 129,-288.2 288.1,-288.2 159.2,0 288.2,129.1 288.2,288.2 0,159.2 -129,288.2 -288.2,288.2 -159.1,0 -288.1,-129 -288.1,-288.2"
         style="fill:#c65447;fill-opacity:1;fill-rule:nonzero;stroke:none"
         id="path258" />
      <path
         d="m 10493.1,11863.2 c -41.5,57.1 -20,143.3 -8.8,189 8.6,35.1 -13.6,72.6 -28.2,92.4 6.4,2 12.9,3 19.6,3 53.1,0 96.1,-64.2 96.1,-143.4 0,-70.4 -33.9,-128.8 -78.7,-141"
         style="fill:#a8d29f;fill-opacity:1;fill-rule:nonzero;stroke:none"
         id="path260" />
      <path
         d="m 10434.2,12133.3 c 20.9,-22 46.6,-58 32.8,-91.6 -22.9,-55.8 -15.9,-127.3 -5.3,-179.2 -46.4,10.2 -82,69.6 -82,141.7 0,56.9 22.3,106 54.5,129.1"
         style="fill:#a8d29f;fill-opacity:1;fill-rule:nonzero;stroke:none"
         id="path262" />
      <path
         d="m 10032.5,12490 h 822.4 v 15.8 h -822.4 v -15.8"
         style="fill:#66a357;fill-opacity:1;fill-rule:nonzero;stroke:none"
         id="path264" />
      <path
         d="m 7898.79,11844.5 -6.02,137.7 -12.59,288 -5.76,132.6 h -365.44 l -8.29,-132.6 -17.94,-288 -8.58,-137.7 h 424.62"
         style="fill:#c65447;fill-opacity:1;fill-rule:nonzero;stroke:none"
         id="path266" />
      <path
         d="m 7905.76,11751.4 h -432.88 l -17.85,93.1 h 462.91 l -12.18,-93.1"
         style="fill:#e57970;fill-opacity:1;fill-rule:nonzero;stroke:none"
         id="path268" />
      <path
         d="m 7892.77,11982.2 -12.59,288 h -379.49 l -17.94,-288 h 410.02"
         style="fill:#e57970;fill-opacity:1;fill-rule:nonzero;stroke:none"
         id="path270" />
      <path
         d="m 7898.79,11946.1 -6.02,137.8 -12.59,287.9 -5.76,132.6 h -365.44 l -8.29,-132.6 -17.94,-287.9 -8.58,-137.8 h 424.62"
         style="fill:#c65447;fill-opacity:1;fill-rule:nonzero;stroke:none"
         id="path272" />
      <path
         d="m 7905.76,11853.1 h -432.88 l -17.85,93 h 462.91 l -12.18,-93"
         style="fill:#e57970;fill-opacity:1;fill-rule:nonzero;stroke:none"
         id="path274" />
      <path
         d="m 7892.77,12083.9 -12.59,287.9 h -379.49 l -17.94,-287.9 h 410.02"
         style="fill:#e57970;fill-opacity:1;fill-rule:nonzero;stroke:none"
         id="path276" />
      <path
         d="m 7898.79,12050.2 -6.02,137.8 -12.59,287.9 -5.76,132.6 h -365.44 l -8.29,-132.6 -17.94,-287.9 -8.58,-137.8 h 424.62"
         style="fill:#c65447;fill-opacity:1;fill-rule:nonzero;stroke:none"
         id="path278" />
      <path
         d="m 7905.76,11957.2 h -432.88 l -17.85,93 h 462.91 l -12.18,-93"
         style="fill:#e57970;fill-opacity:1;fill-rule:nonzero;stroke:none"
         id="path280" />
      <path
         d="m 7892.77,12188 -12.59,287.9 h -379.49 l -17.94,-287.9 h 410.02"
         style="fill:#e57970;fill-opacity:1;fill-rule:nonzero;stroke:none"
         id="path282" />
      <path
         d="m 7898.79,12154.8 -6.02,137.8 -12.59,287.9 -5.76,132.6 h -365.44 l -8.29,-132.6 -17.94,-287.9 -8.58,-137.8 h 424.62"
         style="fill:#c65447;fill-opacity:1;fill-rule:nonzero;stroke:none"
         id="path284" />
      <path
         d="m 7905.76,12061.8 h -432.88 l -17.85,93 h 462.91 l -12.18,-93"
         style="fill:#e57970;fill-opacity:1;fill-rule:nonzero;stroke:none"
         id="path286" />
      <path
         d="m 7892.77,12292.6 -12.59,287.9 h -379.49 l -17.94,-287.9 h 410.02"
         style="fill:#e57970;fill-opacity:1;fill-rule:nonzero;stroke:none"
         id="path288" />
      <path
         d="m 7898.79,12259.9 -6.02,137.8 -12.59,287.9 -5.76,132.6 h -365.44 l -8.29,-132.6 -17.94,-287.9 -8.58,-137.8 h 424.62"
         style="fill:#c65447;fill-opacity:1;fill-rule:nonzero;stroke:none"
         id="path290" />
      <path
         d="m 7905.76,12166.9 h -432.88 l -17.85,93 h 462.91 l -12.18,-93"
         style="fill:#e57970;fill-opacity:1;fill-rule:nonzero;stroke:none"
         id="path292" />
      <path
         d="m 7892.77,12397.7 -12.59,287.9 h -379.49 l -17.94,-287.9 h 410.02"
         style="fill:#e57970;fill-opacity:1;fill-rule:nonzero;stroke:none"
         id="path294" />
      <path
         d="m 7898.79,12364 -6.02,137.8 -12.59,287.9 -5.76,132.6 h -365.44 l -8.29,-132.6 -17.94,-287.9 -8.58,-137.8 h 424.62"
         style="fill:#c65447;fill-opacity:1;fill-rule:nonzero;stroke:none"
         id="path296" />
      <path
         d="m 7905.76,12271 h -432.88 l -17.85,93 h 462.91 l -12.18,-93"
         style="fill:#e57970;fill-opacity:1;fill-rule:nonzero;stroke:none"
         id="path298" />
      <path
         d="m 7892.77,12501.8 -12.59,287.9 h -379.49 l -17.94,-287.9 h 410.02"
         style="fill:#e57970;fill-opacity:1;fill-rule:nonzero;stroke:none"
         id="path300" />
      <path
         d="m 7403.39,11844.5 -6.02,137.7 -12.59,288 -5.75,132.6 h -365.44 l -8.3,-132.6 -17.94,-288 -8.57,-137.7 h 424.61"
         style="fill:#c65447;fill-opacity:1;fill-rule:nonzero;stroke:none"
         id="path302" />
      <path
         d="m 7410.36,11751.4 h -432.88 l -17.85,93.1 h 462.91 l -12.18,-93.1"
         style="fill:#e57970;fill-opacity:1;fill-rule:nonzero;stroke:none"
         id="path304" />
      <path
         d="m 7397.37,11982.2 -12.59,288 h -379.49 l -17.94,-288 h 410.02"
         style="fill:#e57970;fill-opacity:1;fill-rule:nonzero;stroke:none"
         id="path306" />
      <path
         d="m 7403.39,11949.6 -6.02,137.7 -12.59,287.9 -5.75,132.7 h -365.44 l -8.3,-132.7 -17.94,-287.9 -8.57,-137.7 h 424.61"
         style="fill:#c65447;fill-opacity:1;fill-rule:nonzero;stroke:none"
         id="path308" />
      <path
         d="m 7410.36,11856.5 h -432.88 l -17.85,93.1 h 462.91 l -12.18,-93.1"
         style="fill:#e57970;fill-opacity:1;fill-rule:nonzero;stroke:none"
         id="path310" />
      <path
         d="m 7397.37,12087.3 -12.59,287.9 h -379.49 l -17.94,-287.9 h 410.02"
         style="fill:#e57970;fill-opacity:1;fill-rule:nonzero;stroke:none"
         id="path312" />
      <path
         d="m 7403.39,12053.7 -6.02,137.7 -12.59,288 -5.75,132.6 h -365.44 l -8.3,-132.6 -17.94,-288 -8.57,-137.7 h 424.61"
         style="fill:#c65447;fill-opacity:1;fill-rule:nonzero;stroke:none"
         id="path314" />
      <path
         d="m 7410.36,11960.6 h -432.88 l -17.85,93.1 h 462.91 l -12.18,-93.1"
         style="fill:#e57970;fill-opacity:1;fill-rule:nonzero;stroke:none"
         id="path316" />
      <path
         d="m 7397.37,12191.4 -12.59,288 h -379.49 l -17.94,-288 h 410.02"
         style="fill:#e57970;fill-opacity:1;fill-rule:nonzero;stroke:none"
         id="path318" />
      <path
         d="m 5094.16,8530.6 h 3353.58 v 2305.6 H 5094.16 V 8530.6"
         style="fill:#365da4;fill-opacity:1;fill-rule:nonzero;stroke:none"
         id="path320" />
      <path
         d="m 4975.39,10626.6 h 3584.13 v 419.2 H 4975.39 v -419.2"
         style="fill:#163560;fill-opacity:1;fill-rule:nonzero;stroke:none"
         id="path322" />
      <path
         d="M 4975.39,8390.8 H 8559.52 V 8810 H 4975.39 v -419.2"
         style="fill:#163560;fill-opacity:1;fill-rule:nonzero;stroke:none"
         id="path324" />
      <path
         d="m 7871.34,10626.6 v -219.1 L 8502.7,10170 c 50.64,-19.1 75.65,-76.1 55.36,-126.2 -20.29,-50.2 -77.9,-73.8 -127.55,-52.3 l -572.19,247.9 c -33.53,-110.1 -128.79,-193.2 -245.48,-209.3 v -84.3 c 0,-21 -17.01,-38 -38,-38 -20.98,0 -37.98,17 -37.98,38 v 83.4 c -149.18,17.2 -265.06,143.8 -265.06,297.6 v 299.8 h 599.54"
         style="fill:#163560;fill-opacity:1;fill-rule:nonzero;stroke:none"
         id="path326" />
      <path
         d="m 5670.47,10626.6 v -219.1 L 5039.11,10170 c -50.64,-19.1 -75.65,-76.1 -55.36,-126.2 20.28,-50.2 77.91,-73.8 127.55,-52.3 l 572.19,247.9 c 33.53,-110.1 128.79,-193.2 245.48,-209.3 v -84.3 c 0,-21 17.01,-38 37.99,-38 20.98,0 37.99,17 37.99,38 v 83.4 c 149.18,17.2 265.06,143.8 265.06,297.6 v 299.8 h -599.54"
         style="fill:#163560;fill-opacity:1;fill-rule:nonzero;stroke:none"
         id="path328" />
      <path
         d="m 5412.92,11045.8 h 2709.07 v 705.6 H 5412.92 v -705.6"
         style="fill:#365da4;fill-opacity:1;fill-rule:nonzero;stroke:none"
         id="path330" />
      <path
         d="m 7201.01,9148.3 c 24.34,4.4 57.52,-12.4 78.53,-41.2 2.38,-35.6 10.88,-69.6 24.5,-100.9 -34.05,8.2 -103.11,29.6 -118.47,69.3 -19.45,50.3 -6.31,68.9 15.44,72.8 z m -35.68,-133.5 c 45.45,-54 190.26,-89.6 190.26,-89.6 h -0.03 c 56.33,-63.9 138.65,-104.4 230.04,-104.4 168.74,0 306.81,138 306.81,306.8 V 9247 c 0,13 -0.92,25.8 -2.5,38.4 h -608.63 c -1.58,-12.6 -2.5,-25.4 -2.5,-38.4 v -58.7 c -40.57,8.5 -96.57,15.4 -125.35,-2.3 -48.29,-29.9 -33.56,-117.2 11.9,-171.2"
         style="fill:#c45446;fill-opacity:1;fill-rule:nonzero;stroke:none"
         id="path332" />
      <path
         d="m 7840.07,9285.4 h -82.47 c 1.62,-12.5 2.49,-25.4 2.49,-38.3 v -119.5 c 0,-154.8 -116.11,-283.7 -265.49,-303.9 13.46,-2 27.28,-3 41.23,-3 168.7,0 306.74,138.2 306.74,306.9 v 119.5 c 0,12.9 -0.88,25.8 -2.5,38.3"
         style="fill:#e37970;fill-opacity:1;fill-rule:nonzero;stroke:none"
         id="path334" />
      <path
         d="m 7460.59,8810 h 250.45 v 37.5 H 7460.59 V 8810"
         style="fill:#c45446;fill-opacity:1;fill-rule:nonzero;stroke:none"
         id="path336" />
      <path
         d="m 5580.12,9148.3 c 24.33,4.4 57.51,-12.4 78.53,-41.2 2.38,-35.6 10.87,-69.7 24.49,-101 -34.05,8.3 -103.11,29.7 -118.47,69.4 -19.45,50.2 -6.31,68.8 15.45,72.8 z m -35.69,-133.5 c 45.45,-54 190.26,-89.7 190.26,-89.7 l -0.03,0.1 c 56.34,-63.9 138.65,-104.5 230.04,-104.5 168.74,0 306.81,138.1 306.81,306.8 V 9247 c 0,13 -0.92,25.8 -2.5,38.3 h -608.62 c -1.59,-12.5 -2.5,-25.3 -2.5,-38.3 v -58.8 c -40.58,8.5 -96.58,15.5 -125.36,-2.3 -48.29,-29.8 -33.56,-117.2 11.9,-171.1"
         style="fill:#c45446;fill-opacity:1;fill-rule:nonzero;stroke:none"
         id="path338" />
      <path
         d="m 6219.17,9285.4 h -82.47 c 1.63,-12.6 2.49,-25.4 2.49,-38.4 v -119.5 c 0,-154.7 -116.1,-283.7 -265.48,-303.8 13.45,-2 27.27,-3 41.23,-3 168.7,0 306.74,138.1 306.74,306.8 V 9247 c 0,13 -0.88,25.8 -2.51,38.4"
         style="fill:#e37970;fill-opacity:1;fill-rule:nonzero;stroke:none"
         id="path340" />
      <path
         d="m 5839.69,8810 h 250.45 v 37.5 H 5839.69 V 8810"
         style="fill:#c45446;fill-opacity:1;fill-rule:nonzero;stroke:none"
         id="path342" />
      <path
         d="m 8345.69,10680.3 h 71.05 v 314.4 h -71.05 v -314.4"
         style="fill:#365da4;fill-opacity:1;fill-rule:nonzero;stroke:none"
         id="path344" />
      <path
         d="m 8212.79,10680.3 h 71.06 v 314.4 h -71.06 v -314.4"
         style="fill:#365da4;fill-opacity:1;fill-rule:nonzero;stroke:none"
         id="path346" />
      <path
         d="m 8086.46,10680.3 h 71.05 v 314.4 h -71.05 v -314.4"
         style="fill:#365da4;fill-opacity:1;fill-rule:nonzero;stroke:none"
         id="path348" />
      <path
         d="M 17055.3,7550.4 H 12905.5 L 4602.78,3310.7 V 2862.4 L 17055.3,6778.9 v 771.5"
         style="fill:#ee9849;fill-opacity:1;fill-rule:nonzero;stroke:none"
         id="path350" />
      <path
         d="M 4602.78,2862.4 17055.3,6124.2 v -703.1 z"
         style="fill:#ee9849;fill-opacity:1;fill-rule:nonzero;stroke:none"
         id="path352" />
      <path
         d="M 4602.78,3310.7 10763.9,7550.4 H 8354.37 Z"
         style="fill:#ee9849;fill-opacity:1;fill-rule:nonzero;stroke:none"
         id="path354" />
      <path
         d="M 26581.9,2843.6 H 1987.36 c -12.02,0 -21.85,9.8 -21.85,21.9 0,12 9.83,21.8 21.85,21.8 H 26581.9 c 12,0 21.9,-9.8 21.9,-21.8 0,-12.1 -9.9,-21.9 -21.9,-21.9"
         style="fill:#283250;fill-opacity:1;fill-rule:nonzero;stroke:none"
         id="path356" />
    </g>
  </g>
</svg>
